<?xml version="1.0" standalone="no"?><!DOCTYPE svg PUBLIC "-//W3C//DTD SVG 1.1//EN" "http://www.w3.org/Graphics/SVG/1.1/DTD/svg11.dtd"><svg t="1646812119008" class="icon" viewBox="0 0 1024 1024" version="1.1" xmlns="http://www.w3.org/2000/svg" p-id="5312" xmlns:xlink="http://www.w3.org/1999/xlink" width="200" height="200"><defs><style type="text/css"></style></defs><path d="M797.098667 308.352a29.482667 29.482667 0 0 0 0-38.784c-9.685333-11.648-27.136-9.685333-38.826667 0a26.965333 26.965333 0 0 0 0 36.864c9.728 13.568 27.178667 13.568 38.826667 1.92z m81.450666 188.16c-21.333333 0-38.826667 17.408-38.826666 38.784 0 21.333333 17.493333 36.821333 38.826666 36.821333s38.784-17.450667 38.784-36.864c0-23.253333-17.493333-38.784-38.826666-38.784zM746.666667 740.821333a46.848 46.848 0 0 0 1.962666 67.84c19.370667 17.493333 50.389333 17.493333 67.84-1.92 17.493333-19.370667 17.493333-50.432-1.92-67.84-19.413333-19.413333-48.512-17.493333-67.882666 1.92z m-213.333334 79.488c-32.981333 0-60.16 27.178667-60.16 60.16 0 32.938667 27.178667 58.154667 60.16 58.154667 32.981333 0 60.16-27.136 60.16-60.16 0-32.938667-27.178667-58.154667-60.16-58.154667z m-294.826666-91.136a70.229333 70.229333 0 0 0 0 98.901334 70.229333 70.229333 0 0 0 98.986666 0 70.229333 70.229333 0 0 0 0-98.901334c-27.178667-29.098667-69.845333-29.098667-98.986666 0z m31.061333-193.962666a81.92 81.92 0 0 0-81.450667-81.450667 81.92 81.92 0 0 0-81.450666 81.493333 81.92 81.92 0 0 0 81.493333 81.450667c44.586667-1.962667 81.408-36.864 81.408-81.493333 0-1.92 0-1.92 0 0z m-46.506667-310.272a91.306667 91.306667 0 0 0 0 128c34.858667 34.901333 93.056 34.901333 129.92 0 34.901333-34.901333 34.901333-93.098667 0-129.962667-34.901333-34.901333-93.098667-34.901333-129.962666 1.962667zM533.333333 85.333333a103.466667 103.466667 0 0 0-102.826666 102.826667c0 56.192 46.592 102.741333 102.826666 102.741333s102.826667-46.506667 102.826667-102.784C636.16 131.882667 589.525333 85.333333 533.333333 85.333333z" p-id="5313"></path></svg>